{"title":"Joy 2015 DVDScr XVID AC3 HQ Hive-CM8","uid":13059528,"size":1593559295,"categoryP":"video","categoryS":"movies","magnet":"?xt=urn:btih:8d69332790f16c7091cd6913b3a747bfa1c31217&amp;dn=Joy+2015+DVDScr+XVID+AC3+HQ+Hive-CM8&amp;tr=udp%3A%2F%2Ftracker.leechers-paradise.org%3A6969&amp;tr=udp%3A%2F%2Fzer0day.ch%3A1337&amp;tr=udp%3A%2F%2Fopen.demonii.com%3A1337&amp;tr=udp%3A%2F%2Ftracker.coppersurfer.tk%3A6969&amp;tr=udp%3A%2F%2Fexodus.desync.com%3A6969","seeders":9,"leechers":6,"uploader":"makintos13","files":3,"time":1450700012,"description":"screens:\r\n \nhttp://imgmak.com/Kks \nhttp://imgmak.com/Kk4 \nhttp://imgmak.com/Kk8 \nhttp://imgmak.com/KkL \nhttp://imgmak.com/KkX \nhttp://imgmak.com/KmC \nhttp://imgmak.com/KmK\r\n\r\nThx Hive\r\n\r\nCM8 Doing It Right The First Time\r\n\r\nSource: DVD-Screener Big THX m8\r\n\r\nNotes:\r\nDVDScreener 5 of 40\r\nwill do them all one after each other, 5th hot title\r\n\r\nEncode:\r\nquality was perfect on this\r\nAll digital watermarks are removed\r\nFixed brightness,contrast and rgb, and added sharpness\r\n\r\ngot very nice\r\nenjoy\r\n\r\nVideo: 720x400 @bitrate 1600 2pass\r\nAudio: English AC3 2.0 Stereo\r\nSample: yes included \nhttp://www.imdb.com/title/tt2446980/\r\n\r\nGeneral\r\nComplete name: Joy.2015.DVDScr.XVID.AC3.HQ.Hive-CM8.avi\r\nFormat: AVI\r\nFormat/Info: Audio Video Interleave\r\nFile size: 1.47 GiB\r\nDuration: 1h 53mn\r\nOverall bit rate: 1 862 Kbps\r\nWriting application: Nandub v1.0rc2\r\nWriting library: Nandub build 1853/release\r\n\r\nVideo\r\nID: 0\r\nFormat: MPEG-4 Visual\r\nFormat profile: Advanced   \r\nFormat settings, BVOP: 2\r\nFormat settings, QPel: Yes\r\nFormat settings, GMC: No warppoints\r\nFormat settings, Matrix: Default (H.263)\r\nMuxing mode: Packed bitstream\r\nCodec ID: XVID\r\nCodec ID/Hint: XviD\r\nDuration: 1h 53mn\r\nBit rate: 1 594 Kbps\r\nWidth: 720 pixels\r\nHeight: 400 pixels\r\nDisplay aspect ratio: 16:9\r\nFrame rate: 29.970 fps\r\nColor space: YUV\r\nChroma subsampling: 4:2:0\r\nBit depth: 8 bits\r\nScan type: Progressive\r\nCompression mode: Lossy\r\nBits/(Pixel*Frame): 0.185\r\nStream size: 1.26 GiB (86%)\r\nWriting library: XviD 1.2.1 (UTC 2008-12-04)\r\n\r\nAudio\r\nID: 1\r\nFormat: AC-3\r\nFormat/Info: Audio Coding 3\r\nMode extension: CM (complete main)\r\nFormat settings, Endianness: Big\r\nCodec ID: 2000\r\nDuration: 1h 53mn\r\nBit rate mode: Constant\r\nBit rate: 256 Kbps\r\nChannel(s): 2 channels\r\nChannel positions: Front: L R\r\nSampling rate: 48.0 KHz\r\nBit depth: 16 bits\r\nCompression mode: Lossy\r\nDelay relative to video: 24ms\r\nStream size: 207 MiB (14%)\r\nAlignment: Split accross interleaves\r\nInterleave, duration: 33 ms (1.00 video frame)\r\nInterleave, preload duration: 500 ms","torrent":{"xt":"urn:btih:8d69332790f16c7091cd6913b3a747bfa1c31217","amp;dn":"Joy+2015+DVDScr+XVID+AC3+HQ+Hive-CM8","amp;tr":["udp%3A%2F%2Ftracker.leechers-paradise.org%3A6969","udp%3A%2F%2Fzer0day.ch%3A1337","udp%3A%2F%2Fopen.demonii.com%3A1337","udp%3A%2F%2Ftracker.coppersurfer.tk%3A6969","udp%3A%2F%2Fexodus.desync.com%3A6969"],"infoHash":"8d69332790f16c7091cd6913b3a747bfa1c31217","infoHashBuffer":{"type":"Buffer","data":[141,105,51,39,144,241,108,112,145,205,105,19,179,167,71,191,161,195,18,23]},"announce":[],"urlList":[]}}